<svg width="248" height="64" viewBox="0 0 248 64" fill="none" xmlns="http://www.w3.org/2000/svg">
<path d="M55.547 40.6689C59.0195 41.941 62.9392 40.1408 63.4551 36.4671C64.1621 31.4335 63.6684 26.2695 61.9713 21.4117C59.5306 14.4254 54.7517 8.50459 48.449 4.65812C42.1463 0.811645 34.7097 -0.722479 27.4064 0.317138C20.103 1.35676 13.3848 4.90579 8.39634 10.3595C3.4079 15.8133 0.457923 22.8343 0.0490443 30.2263C-0.359834 37.6182 1.79769 44.9238 6.15399 50.8982C10.5103 56.8726 16.7959 61.1462 23.9397 62.9908C28.9069 64.2734 34.0755 64.3264 39.0122 63.19C42.6152 62.3605 44.0678 58.2873 42.5087 54.9234C40.9495 51.5596 36.9297 50.2419 33.2432 50.5146C31.2525 50.6619 29.2367 50.4859 27.2749 49.9794C23.1304 48.9092 19.4839 46.4299 16.9566 42.9638C14.4292 39.4978 13.1776 35.2594 13.4148 30.971C13.652 26.6825 15.3634 22.6093 18.2575 19.4453C21.1515 16.2813 25.0491 14.2223 29.2862 13.6192C33.5232 13.016 37.8375 13.906 41.4941 16.1376C45.1506 18.3691 47.923 21.8041 49.339 25.8572C50.0093 27.7757 50.356 29.7765 50.3797 31.7797C50.4235 35.4895 52.0746 39.3968 55.547 40.6689Z" fill="#DE7F28"/>
<path d="M49.9464 57.1022C47.6801 54.8276 47.6801 51.1486 49.9464 48.8741V48.8741C52.2244 46.5878 55.9265 46.5878 58.2045 48.8741L62.3036 52.9881L64 62.9489L54.0754 61.2463L49.9464 57.1022Z" fill="#DE7F28"/>
<path d="M48.4073 41.5766C48.4073 44.7372 45.8545 47.2993 42.7055 47.2993C39.5564 47.2993 37.0036 44.7372 37.0036 41.5766C37.0036 38.4161 39.5564 35.854 42.7055 35.854C45.8545 35.854 48.4073 38.4161 48.4073 41.5766Z" fill="#FAFAFA"/>
<path d="M132.792 33.648C132.792 35.2 132.632 36.688 132.312 38.112C131.992 39.52 131.528 40.84 130.92 42.072C130.328 43.304 129.6 44.44 128.736 45.48C127.872 46.504 126.888 47.408 125.784 48.192L134.592 57.792H129.264C128.496 57.792 127.8 57.688 127.176 57.48C126.568 57.272 126.008 56.888 125.496 56.328L120.408 50.712C119.592 50.936 118.752 51.104 117.888 51.216C117.04 51.328 116.152 51.384 115.224 51.384C112.6 51.384 110.2 50.944 108.024 50.064C105.864 49.168 104.008 47.928 102.456 46.344C100.92 44.76 99.728 42.888 98.88 40.728C98.032 38.552 97.608 36.192 97.608 33.648C97.608 31.104 98.032 28.752 98.88 26.592C99.728 24.416 100.92 22.536 102.456 20.952C104.008 19.368 105.864 18.136 108.024 17.256C110.2 16.36 112.6 15.912 115.224 15.912C117.848 15.912 120.24 16.36 122.4 17.256C124.56 18.152 126.408 19.392 127.944 20.976C129.48 22.544 130.672 24.416 131.52 26.592C132.368 28.752 132.792 31.104 132.792 33.648ZM126.168 33.648C126.168 31.744 125.912 30.04 125.4 28.536C124.904 27.016 124.184 25.728 123.24 24.672C122.296 23.616 121.144 22.808 119.784 22.248C118.44 21.688 116.92 21.408 115.224 21.408C113.528 21.408 112 21.688 110.64 22.248C109.28 22.808 108.12 23.616 107.16 24.672C106.216 25.728 105.488 27.016 104.976 28.536C104.464 30.04 104.208 31.744 104.208 33.648C104.208 35.552 104.464 37.264 104.976 38.784C105.488 40.288 106.216 41.568 107.16 42.624C108.12 43.664 109.28 44.464 110.64 45.024C112 45.584 113.528 45.864 115.224 45.864C116.92 45.864 118.44 45.584 119.784 45.024C121.144 44.464 122.296 43.664 123.24 42.624C124.184 41.568 124.904 40.288 125.4 38.784C125.912 37.264 126.168 35.552 126.168 33.648ZM145.647 51.384C143.519 51.384 141.879 50.784 140.727 49.584C139.575 48.368 138.999 46.696 138.999 44.568V30.816H136.503C136.183 30.816 135.903 30.712 135.663 30.504C135.439 30.296 135.327 29.984 135.327 29.568V27.216L139.287 26.568L140.535 19.848C140.599 19.528 140.743 19.28 140.967 19.104C141.207 18.928 141.503 18.84 141.855 18.84H144.927V26.592H151.407V30.816H144.927V44.16C144.927 44.928 145.119 45.528 145.503 45.96C145.887 46.392 146.399 46.608 147.039 46.608C147.407 46.608 147.711 46.568 147.951 46.488C148.207 46.392 148.423 46.296 148.599 46.2C148.791 46.104 148.959 46.016 149.103 45.936C149.247 45.84 149.391 45.792 149.535 45.792C149.711 45.792 149.855 45.84 149.967 45.936C150.079 46.016 150.199 46.144 150.327 46.32L152.103 49.2C151.239 49.92 150.247 50.464 149.127 50.832C148.007 51.2 146.847 51.384 145.647 51.384ZM156.121 51V26.376H159.745C160.513 26.376 161.017 26.736 161.257 27.456L161.665 29.4C162.161 28.888 162.681 28.424 163.225 28.008C163.785 27.592 164.369 27.232 164.977 26.928C165.601 26.624 166.265 26.392 166.969 26.232C167.673 26.072 168.441 25.992 169.273 25.992C170.617 25.992 171.809 26.224 172.849 26.688C173.889 27.136 174.753 27.776 175.441 28.608C176.145 29.424 176.673 30.408 177.025 31.56C177.393 32.696 177.577 33.952 177.577 35.328V51H171.649V35.328C171.649 33.824 171.297 32.664 170.593 31.848C169.905 31.016 168.865 30.6 167.473 30.6C166.449 30.6 165.489 30.832 164.593 31.296C163.697 31.76 162.849 32.392 162.049 33.192V51H156.121ZM193.578 25.992C195.13 25.992 196.554 26.24 197.85 26.736C199.162 27.232 200.29 27.96 201.234 28.92C202.178 29.864 202.914 31.032 203.442 32.424C203.97 33.8 204.234 35.376 204.234 37.152C204.234 37.6 204.21 37.976 204.162 38.28C204.13 38.568 204.058 38.8 203.946 38.976C203.85 39.136 203.714 39.256 203.538 39.336C203.362 39.4 203.138 39.432 202.866 39.432H187.65C187.826 41.96 188.506 43.816 189.69 45C190.874 46.184 192.442 46.776 194.394 46.776C195.354 46.776 196.178 46.664 196.866 46.44C197.57 46.216 198.178 45.968 198.69 45.696C199.218 45.424 199.674 45.176 200.058 44.952C200.458 44.728 200.842 44.616 201.21 44.616C201.45 44.616 201.658 44.664 201.834 44.76C202.01 44.856 202.162 44.992 202.29 45.168L204.018 47.328C203.362 48.096 202.626 48.744 201.81 49.272C200.994 49.784 200.138 50.2 199.242 50.52C198.362 50.824 197.458 51.04 196.53 51.168C195.618 51.296 194.73 51.36 193.866 51.36C192.154 51.36 190.562 51.08 189.09 50.52C187.618 49.944 186.338 49.104 185.25 48C184.162 46.88 183.306 45.504 182.682 43.872C182.058 42.224 181.746 40.32 181.746 38.16C181.746 36.48 182.018 34.904 182.562 33.432C183.106 31.944 183.882 30.656 184.89 29.568C185.914 28.464 187.154 27.592 188.61 26.952C190.082 26.312 191.738 25.992 193.578 25.992ZM193.698 30.24C191.97 30.24 190.618 30.728 189.642 31.704C188.666 32.68 188.042 34.064 187.77 35.856H198.906C198.906 35.088 198.802 34.368 198.594 33.696C198.386 33.008 198.066 32.408 197.634 31.896C197.202 31.384 196.658 30.984 196.002 30.696C195.346 30.392 194.578 30.24 193.698 30.24ZM223.659 31.176C223.499 31.432 223.331 31.616 223.155 31.728C222.979 31.824 222.755 31.872 222.483 31.872C222.195 31.872 221.883 31.792 221.547 31.632C221.227 31.472 220.851 31.296 220.419 31.104C219.987 30.896 219.491 30.712 218.931 30.552C218.387 30.392 217.739 30.312 216.987 30.312C215.819 30.312 214.899 30.56 214.227 31.056C213.555 31.552 213.219 32.2 213.219 33C213.219 33.528 213.387 33.976 213.723 34.344C214.075 34.696 214.531 35.008 215.091 35.28C215.667 35.552 216.315 35.8 217.035 36.024C217.755 36.232 218.491 36.464 219.243 36.72C219.995 36.976 220.731 37.272 221.451 37.608C222.171 37.928 222.811 38.344 223.371 38.856C223.947 39.352 224.403 39.952 224.739 40.656C225.091 41.36 225.267 42.208 225.267 43.2C225.267 44.384 225.051 45.48 224.619 46.488C224.187 47.48 223.555 48.344 222.723 49.08C221.891 49.8 220.859 50.368 219.627 50.784C218.411 51.184 217.011 51.384 215.427 51.384C214.579 51.384 213.747 51.304 212.931 51.144C212.131 51 211.355 50.792 210.603 50.52C209.867 50.248 209.179 49.928 208.539 49.56C207.915 49.192 207.363 48.792 206.883 48.36L208.251 46.104C208.427 45.832 208.635 45.624 208.875 45.48C209.115 45.336 209.419 45.264 209.787 45.264C210.155 45.264 210.499 45.368 210.819 45.576C211.155 45.784 211.539 46.008 211.971 46.248C212.403 46.488 212.907 46.712 213.483 46.92C214.075 47.128 214.819 47.232 215.715 47.232C216.419 47.232 217.019 47.152 217.515 46.992C218.027 46.816 218.443 46.592 218.763 46.32C219.099 46.048 219.339 45.736 219.483 45.384C219.643 45.016 219.723 44.64 219.723 44.256C219.723 43.68 219.547 43.208 219.195 42.84C218.859 42.472 218.403 42.152 217.827 41.88C217.267 41.608 216.619 41.368 215.883 41.16C215.163 40.936 214.419 40.696 213.651 40.44C212.899 40.184 212.155 39.888 211.419 39.552C210.699 39.2 210.051 38.76 209.475 38.232C208.915 37.704 208.459 37.056 208.107 36.288C207.771 35.52 207.603 34.592 207.603 33.504C207.603 32.496 207.803 31.536 208.203 30.624C208.603 29.712 209.187 28.92 209.955 28.248C210.739 27.56 211.707 27.016 212.859 26.616C214.027 26.2 215.371 25.992 216.891 25.992C218.587 25.992 220.131 26.272 221.523 26.832C222.915 27.392 224.075 28.128 225.003 29.04L223.659 31.176ZM244.612 31.176C244.452 31.432 244.284 31.616 244.108 31.728C243.932 31.824 243.708 31.872 243.436 31.872C243.148 31.872 242.836 31.792 242.5 31.632C242.18 31.472 241.804 31.296 241.372 31.104C240.94 30.896 240.444 30.712 239.884 30.552C239.34 30.392 238.692 30.312 237.94 30.312C236.772 30.312 235.852 30.56 235.18 31.056C234.508 31.552 234.172 32.2 234.172 33C234.172 33.528 234.34 33.976 234.676 34.344C235.028 34.696 235.484 35.008 236.044 35.28C236.62 35.552 237.268 35.8 237.988 36.024C238.708 36.232 239.444 36.464 240.196 36.72C240.948 36.976 241.684 37.272 242.404 37.608C243.124 37.928 243.764 38.344 244.324 38.856C244.9 39.352 245.356 39.952 245.692 40.656C246.044 41.36 246.22 42.208 246.22 43.2C246.22 44.384 246.004 45.48 245.572 46.488C245.14 47.48 244.508 48.344 243.676 49.08C242.844 49.8 241.812 50.368 240.58 50.784C239.364 51.184 237.964 51.384 236.38 51.384C235.532 51.384 234.7 51.304 233.884 51.144C233.084 51 232.308 50.792 231.556 50.52C230.82 50.248 230.132 49.928 229.492 49.56C228.868 49.192 228.316 48.792 227.836 48.36L229.204 46.104C229.38 45.832 229.588 45.624 229.828 45.48C230.068 45.336 230.372 45.264 230.74 45.264C231.108 45.264 231.452 45.368 231.772 45.576C232.108 45.784 232.492 46.008 232.924 46.248C233.356 46.488 233.86 46.712 234.436 46.92C235.028 47.128 235.772 47.232 236.668 47.232C237.372 47.232 237.972 47.152 238.468 46.992C238.98 46.816 239.396 46.592 239.716 46.32C240.052 46.048 240.292 45.736 240.436 45.384C240.596 45.016 240.676 44.64 240.676 44.256C240.676 43.68 240.5 43.208 240.148 42.84C239.812 42.472 239.356 42.152 238.78 41.88C238.22 41.608 237.572 41.368 236.836 41.16C236.116 40.936 235.372 40.696 234.604 40.44C233.852 40.184 233.108 39.888 232.372 39.552C231.652 39.2 231.004 38.76 230.428 38.232C229.868 37.704 229.412 37.056 229.06 36.288C228.724 35.52 228.556 34.592 228.556 33.504C228.556 32.496 228.756 31.536 229.156 30.624C229.556 29.712 230.14 28.92 230.908 28.248C231.692 27.56 232.66 27.016 233.812 26.616C234.98 26.2 236.324 25.992 237.844 25.992C239.54 25.992 241.084 26.272 242.476 26.832C243.868 27.392 245.028 28.128 245.956 29.04L244.612 31.176Z" fill="#FAFAFA"/>
</svg>
