<svg width="100" height="100" viewBox="0 0 100 100" fill="none" xmlns="http://www.w3.org/2000/svg">
<g clip-path="url(#clip0_65_15)">
<path d="M86.7922 63.5452C92.2179 65.5328 98.3424 62.72 99.1486 56.9798C100.253 49.1148 99.4819 41.0461 96.8302 33.4559C93.0165 22.5397 85.5496 13.2884 75.7016 7.27831C65.8536 1.2682 54.234 -1.12887 42.8225 0.495529C31.411 2.11993 20.9137 7.6653 13.1193 16.1868C5.32485 24.7082 0.715505 35.6786 0.0766318 47.2285C-0.562241 58.7785 2.80889 70.1935 9.61561 79.5285C16.4223 88.8635 26.2435 95.541 37.4057 98.4231C45.1671 100.427 53.2429 100.51 60.9566 98.7343C66.5862 97.4383 68.856 91.0739 66.4198 85.8179C63.9836 80.5619 57.7027 78.503 51.9425 78.9291C48.832 79.1592 45.6823 78.8842 42.6171 78.0928C36.1413 76.4207 30.4436 72.5467 26.4946 67.131C22.5457 61.7153 20.5899 55.0929 20.9606 48.3921C21.3312 41.6914 24.0053 35.327 28.5273 30.3832C33.0492 25.4395 39.1392 22.2223 45.7596 21.2799C52.38 20.3375 59.1212 21.7282 64.8345 25.215C70.5478 28.7017 74.8798 34.0689 77.0923 40.4019C78.1395 43.3995 78.6812 46.5258 78.7182 49.6558C78.7868 55.4523 81.3666 61.5575 86.7922 63.5452Z" fill="#DE7F28"/>
<path d="M78.0412 89.2221C74.5002 85.6681 74.5001 79.9197 78.0412 76.3657V76.3657C81.6005 72.7934 87.3852 72.7934 90.9445 76.3657L97.3493 82.7939L100 98.3576L84.4929 95.6973L78.0412 89.2221Z" fill="#DE7F28"/>
<path d="M75.6364 64.9635C75.6364 69.9018 71.6476 73.9051 66.7273 73.9051C61.8069 73.9051 57.8182 69.9018 57.8182 64.9635C57.8182 60.0252 61.8069 56.0219 66.7273 56.0219C71.6476 56.0219 75.6364 60.0252 75.6364 64.9635Z" fill="#FAFAFA"/>
</g>
<defs>
<clipPath id="clip0_65_15">
<rect width="100" height="100" fill="white"/>
</clipPath>
</defs>
</svg>
